<svg xmlns="http://www.w3.org/2000/svg" viewBox="0 0 24 24" fill="none" aria-hidden="true">
  <path d="M9.1 14.65C9.1 13.17 10.3 12.45 12.07 12.45C12.7 12.45 13.15 12.52 13.67 12.68V12.18C13.67 10.98 12.93 10.32 11.6 10.32C10.63 10.32 9.92 10.52 9.08 10.9L8.28 8.62C9.3 8.15 10.43 7.83 12.02 7.83C13.83 7.83 15.12 8.3 15.93 9.12C16.74 9.92 17.08 11.08 17.08 12.53V16.9H13.65V16.08C12.98 16.7 12.1 17.05 11.05 17.05C9.88 17.05 9.1 16.08 9.1 14.65ZM13.72 14.15V13.8C13.38 13.68 12.98 13.6 12.58 13.6C11.7 13.6 11.18 13.95 11.18 14.55C11.18 15.03 11.57 15.3 12.12 15.3C13.03 15.3 13.72 14.78 13.72 14.15Z" fill="#1c1917"/>
  <path d="M6.25 18.25C8.1 19.55 10.15 20.2 12.38 20.2C14.5 20.2 16.48 19.7 18.35 18.7" stroke="#1c1917" stroke-width="1.5" stroke-linecap="round"/>
  <path d="M17.18 17.1L18.95 17.15L18.2 18.72" stroke="#1c1917" stroke-width="1.5" stroke-linecap="round" stroke-linejoin="round"/>
</svg>
