<svg xmlns="http://www.w3.org/2000/svg" viewBox="0 0 24 24" fill="none" aria-hidden="true">
  <path d="M13.4 5.1C13.78 6.3 14.62 7.13 15.85 7.55C16.3 7.7 16.82 7.8 17.3 7.8V10.15C16.18 10.13 15.03 9.8 14 9.18V14.55C14 16.98 12.22 18.9 9.82 18.9C7.88 18.9 6.2 17.43 6.2 15.42C6.2 13.37 7.92 11.92 9.87 11.92C10.18 11.92 10.48 11.95 10.8 12.03V14.42C10.55 14.28 10.17 14.18 9.88 14.18C9.1 14.18 8.45 14.74 8.45 15.45C8.45 16.18 9.02 16.72 9.77 16.72C10.53 16.72 11.13 16.15 11.13 15.3V5.1H13.4Z" fill="#1c1917"/>
</svg>
